<?xml version="1.0" encoding="utf-8"?>
<svg xmlns="http://www.w3.org/2000/svg" height="32" width="32" viewBox="0 0 32 32">
  <g>
    <path id="path1" transform="rotate(0,16,16) translate(0.114003167867283,0) scale(0.999999880790725,0.999999880790725)  " fill="#FFFFFF" d="M8.2988891,19.600962C8.5988807,19.800959 8.7988825,19.900952 9.0988741,19.900952 9.2988758,21.000962 9.6988716,22.700967 10.498856,24.900973 8.9988766,24.500977 7.3989,23.800977 5.6999259,22.500968 5.6999259,22.500968 5.5999212,22.500968 5.5999212,22.400962 6.4999103,21.500964 7.3989,20.50096 8.2988891,19.600962z M0.099997055,18.900946C11.298848,33.30001,22.398694,23.400966,22.398694,23.400966L20.498717,19.600962 28.997601,22.900964 26.697631,32.000003C26.697631,32.000003 25.397653,29.499991 24.89766,28.499987 19.398734,33.000007 4.7999368,34.300013 0.099997055,18.900946z M20.498717,12.600932C20.69872,12.900922 20.898715,13.100935 21.098708,13.300932 21.998698,13.900925 23.098681,13.900925 23.898673,13.300932 26.697631,15.600945 29.097598,18.200948 30.997575,21.200959L30.997575,21.300967C30.897576,21.60097,30.79758,21.800969,30.697576,22.100974L29.597592,21.700963 20.998712,18.200948 17.398763,16.800948 19.098737,20.200955 20.398721,22.900964C18.898742,23.900969 15.698789,25.600987 11.698844,25.100985 11.098846,23.300975 10.598853,21.500964 10.298861,19.800959 10.698857,19.600962 10.998849,19.400948 11.298848,19.000954 11.798841,18.300954 11.898838,17.500947 11.598839,16.800948 14.398804,14.90093 17.298766,13.50093 20.498717,12.600932z M30.297587,10.900913L30.997575,10.900913C31.297574,11.700919 31.497567,12.500926 31.597564,13.400924 31.897563,15.500938 31.797566,17.700946 31.397571,19.600962 29.497594,16.800948 27.197623,14.300937 24.597661,12.200921 24.697658,11.900917 24.797662,11.600928 24.797662,11.400915 24.89766,11.400915 25.097653,11.300923 25.197652,11.300923 26.897632,11.100926 28.597606,10.900913 30.297587,10.900913z M12.198837,7.0019091C14.998794,7.9019068 17.798758,9.1009176 20.298724,10.600923 20.198728,10.800921 20.198728,11.100926 20.198728,11.300923 16.998767,12.300928 13.89881,13.800935 10.998849,15.700936L10.898852,15.600945C10.598853,15.400932 10.298861,15.200934 9.8988657,15.200934 9.7988682,12.900922 9.8988657,10.500917 10.298861,8.2019108 10.998849,8.2019108 11.598839,7.8019002 11.998836,7.3018983 12.098832,7.201907 12.098832,7.1019004 12.198837,7.0019091z M3.7999503,5.6018942L4.0999417,5.6018942C5.199933,5.7019003 6.3999133,5.8018916 7.7988963,6.0019048 7.7988963,6.7019046 8.0988874,7.3018983 8.6988849,7.8019002 8.7988825,7.9019068 8.898879,8.0019139 9.0988741,8.0019139 8.6988849,10.500917 8.5988807,12.900922 8.6988849,15.30094 8.2988891,15.500938 7.8988933,15.700936 7.5988941,16.100947 6.9999037,16.900939 6.9999037,17.900943 7.3989,18.70095 6.5999074,19.500956 5.6999259,20.50096 4.6999397,21.700963 0.59999005,17.700946 0.20000168,16.000941 0,15.500938 0.099996958,11.800926 1.4999792,8.3019026 3.7999503,5.6018942z M10.998849,0.80187036C10.698857,1.7018834 10.298861,2.6018811 9.9988632,3.6018856 9.2988758,3.6018854 8.5988807,3.9018899 8.1988926,4.5018986 8.1988926,4.6018899 8.0988874,4.701896 8.0988874,4.8018873 6.9999037,4.701896 5.89992,4.5018986 4.7999368,4.5018986 6.5999074,2.9018856 8.5988807,1.6018768 10.998849,0.80187036z M16.102946,0.00011345467C22.479106,0.024235977 28.136676,3.8940557 30.597579,9.7009104 28.697602,9.7009104 26.797635,9.9009083 25.097653,10.100921 24.89766,10.100921 24.697658,10.200912 24.597661,10.200912 24.398665,9.9009083 24.198672,9.6009196 23.898673,9.4009064 22.998683,8.7009066 21.698707,8.8009127 20.898715,9.5009125 18.198754,7.9019068 15.39879,6.6018985 12.498828,5.7019003 12.498828,5.0019005 12.198837,4.401892 11.598839,3.9018901 11.498842,3.8018833 11.398845,3.8018833 11.298848,3.7018922 11.698844,2.4018834 12.098832,1.3018726 12.498828,0.30186842L12.498828,0.2018771C12.798827,0.10187041 13.098819,0.10187041 13.398817,0.0018791828 14.19881,0.10187041 14.998794,0.0018791316 15.798786,0.0018791828 15.900348,0.00031652957 16.001737,-0.00026950577 16.102946,0.00011345467z" />
  </g>
</svg>

