<?xml version="1.0" encoding="utf-8"?>
<svg xmlns="http://www.w3.org/2000/svg" height="32" width="32" viewBox="0 0 32 32">
  <g>
    <path id="path1" transform="rotate(0,16,16) translate(4,0) scale(1,1)  " fill="#000000" d="M8.9999995,27L9.9989758,27 11.998976,27 12,27 12,28 11.998976,28 11.998976,29.998014 9.9989758,29.998014 9.9989758,28 8.9999995,28z M5.9999995,25L6.0010228,25 8.0010228,25 8.9999995,25 8.9999995,26 8.0010228,26 8.0010228,27.998014 6.0010228,27.998014 6.0010228,26 5.9999995,26z M8.9999995,23L9.9989758,23 11.998976,23 12,23 12,24 11.998976,24 11.998976,25.998014 9.9989758,25.998014 9.9989758,24 8.9999995,24z M5.9999995,21L6.0010228,21 8.0010228,21 8.9999995,21 8.9999995,22 8.0010228,22 8.0010228,23.998014 6.0010228,23.998014 6.0010228,22 5.9999995,22z M8.9999995,19L9.9989758,19 11.998976,19 12,19 12,20 11.998976,20 11.998976,21.998014 9.9989758,21.998014 9.9989758,20 8.9999995,20z M5.9999995,17L6.0010228,17 8.0010228,17 8.9999995,17 8.9999995,18 8.0010228,18 8.0010228,19.998014 6.0010228,19.998014 6.0010228,18 5.9999995,18z M8.0009899,11L8.0009899,14.020023 9.9639988,14.020023 9.9639988,11z M6.0009947,7.0210247L8.0009899,7.0210247 8.0009899,9 9.9639988,9 9.9639988,7.0210247 11.963995,7.0210247 11.963995,16.020025 6.0009947,16.020025z M7.9999995,5.0019932L9.9999995,5.0019932 9.9999995,7.0009999 7.9999995,7.0009999z M16.999999,3.4139996L16.999999,7.0320048 20.618004,7.0320048z M2,2L2,30 5.9999995,30 5.9999995,29 6.0010228,29 8.0010228,29 8.9999995,29 8.9999995,30 21.999999,30 21.999999,9.032011 14.999999,9.032011 14.999999,2z M2,0L16.414,0 24,7.586 24,30C24,31.103001,23.102999,32,21.999999,32L2,32C0.89699936,32,-4.7683716E-07,31.103001,0,30L0,2C-4.7683716E-07,0.89699984,0.89699936,0,2,0z" />
  </g>
</svg>

