<?xml version="1.0" encoding="utf-8"?>
<svg xmlns="http://www.w3.org/2000/svg" height="32" width="32" viewBox="0 0 32 32">
  <g>
    <path id="path1" transform="rotate(0,16,16) translate(0,3.64999961853027) scale(1,1)  " fill="#000000" d="M3.3999939,17.300005L16.799988,17.300005 16.799988,22.60001C16.799988,23.400013,17.099991,24.10001,17.5,24.60001L3.3999939,24.60001C1.5,24.60001,0,23.200001,0,21.500004L0,20.300005C0,18.699999,1.5,17.300005,3.3999939,17.300005z M25,17.000002C24.199997,17.000002 23.599991,17.600008 23.599991,18.400011 23.599991,18.900011 23.799988,19.300005 24.199997,19.500002L24.199997,21.200001C24.199997,21.700001 24.599991,22.000004 25,22.000004 25.5,22.000004 25.799988,21.60001 25.799988,21.200001L25.799988,19.500002C26.099991,19.199999 26.399994,18.800005 26.399994,18.400011 26.399994,17.699999 25.799988,17.000002 25,17.000002z M20,14.500002L30,14.500002C31.099991,14.500002,32,15.400011,32,16.500002L32,22.700001C32,23.800007,31.099991,24.700001,30,24.700001L20,24.700001C18.899994,24.700001,18,23.800007,18,22.700001L18,16.500002C18,15.300005,18.899994,14.500002,20,14.500002z M3.3999939,8.6999977L19.5,8.6999977C19,9.6000078,18.799988,10.500002,18.799988,11.600008L18.799988,13.500002C17.699997,13.900011,17,14.800005,16.799988,16.000002L3.3999939,16.000002C1.5,16.000002,0,14.600008,0,12.900011L0,11.699999C0,10.000002,1.5,8.6999977,3.3999939,8.6999977z M25,6.6000069C27.699997,6.6000069,30,8.8000038,30,11.600008L30,13.800005 27.799988,13.800005 27.799988,11.600008C27.799988,10.100008 26.599991,8.9000109 25.099991,8.9000109 23.599991,8.9000109 22.399994,10.100008 22.399994,11.600008L22.399994,13.800005 20,13.800005 20,11.600008C20,8.8000038,22.299988,6.6000069,25,6.6000069z M4.2999878,2.5000005C3.5999908,2.5000005 3.0999908,3.0000005 3.0999908,3.6999975 3.0999908,4.4000099 3.5999908,4.9000099 4.2999878,4.9000099 5,4.9000099 5.5,4.4000099 5.5,3.6999975 5.5,3.0000005 4.8999939,2.5000005 4.2999878,2.5000005z M3.3999939,0L24.599991,0C26.5,1.8479204E-07,28,1.4000096,28,3.1000066L28,4.3000038C28,4.9000099 27.799988,5.5000008 27.5,6.0000008 26.699997,5.6999977 25.899994,5.5000008 25,5.5000008 23.199997,5.5000008 21.599991,6.1999977 20.5,7.4000104L3.3999939,7.4000104C1.5,7.3000043,0,5.9000099,0,4.1999977L0,3.1000066C0,1.4000096,1.5,1.8479204E-07,3.3999939,0z" />
  </g>
</svg>

