<?xml version="1.0" encoding="utf-8"?>
<svg xmlns="http://www.w3.org/2000/svg" height="32" width="32" viewBox="0 0 32 32">
  <g>
    <path id="path1" transform="rotate(0,16,16) translate(0,2.1775229245151) scale(0.999998807908526,0.999998807908526)  " fill="#000000" d="M17.738401,9.1511638L2.1081758,23.984022C2.0141745,24.072021 2.000174,24.17802 2.000174,24.233019 1.9991741,24.289018 2.0111742,24.396019 2.1031756,24.486017L3.1721911,25.545007C3.3261933,25.696005,3.4691954,25.743005,3.6671982,25.537006L18.550413,9.9551561z M17.429852,2.0000004C15.500813,2.0000004 13.54681,2.4989936 12.167765,2.9539954 14.138797,3.0150001 16.668857,3.4789893 18.405878,5.1969921 18.595882,5.3849957 18.702879,5.6409924 18.702879,5.9079907 18.702879,6.1749894 18.595882,6.4299943 18.406855,6.6179979L18.214896,6.8089921 19.181698,7.7655408 20.656444,9.2241628 20.661085,9.2292392 21.04391,9.6080043C21.750889,9.0009944,22.893909,9.037997,23.563961,9.6999995L25.384967,11.500994C25.737937,11.849993 25.93197,12.315997 25.93197,12.811999 25.93197,13.254993 25.776938,13.674991 25.491963,14.007999L26.501985,15.006992 29.932996,11.610995 28.926024,10.612994C28.216971,11.220004,27.072976,11.181994,26.404937,10.520999L24.58497,8.7200029C24.230961,8.3709886 24.036928,7.9050004 24.036928,7.4089982 24.036928,6.9659898 24.191959,6.5469987 24.476935,6.2129991L21.309905,3.0799873C21.120876,2.891999 20.933924,2.7529914 20.754906,2.6660011 19.839916,2.2239995 18.720884,2.0000004 17.429852,2.0000004z M17.429852,0C19.024904,-2.5157533E-08 20.435871,0.2910004 21.624911,0.86499026 22.003944,1.0489962 22.371929,1.3159946 22.717942,1.658997L25.990993,4.8969891C26.344939,5.2469952 26.538972,5.7129986 26.538972,6.2079942 26.538972,6.6519944 26.383941,7.0710008 26.097987,7.4039933L27.71898,9.0079982C28.426995,8.4010026,29.568978,8.438997,30.237992,9.0979945L31.452058,10.29999C31.805028,10.649996 32.000037,11.114993 32.000037,11.612002 32.000037,12.106997 31.805028,12.573001 31.452058,12.922991L27.81096,16.524997C27.46098,16.87099 26.995948,17.062 26.501985,17.062 26.00796,17.062 25.542928,16.87099 25.191972,16.524997L23.977967,15.323993C23.624935,14.974003 23.429926,14.507999 23.429926,14.011997 23.429926,13.569996 23.585934,13.149997 23.87091,12.817004L22.250896,11.213992C21.631381,11.744244,20.678864,11.782196,20.002228,11.341258L19.996961,11.337442 5.1122191,26.918995C4.6722126,27.379989 4.0532036,27.644987 3.4161944,27.644987 2.7941856,27.644987 2.2081771,27.40299 1.7651706,26.965994L0.697155,25.908003C0.24014854,25.457008 -0.006855011,24.855013 0.0001449585,24.21302 0.0071458817,23.570026 0.26614952,22.974031 0.7311554,22.532036L16.372595,7.6896398 16.368328,7.6825998C16.225007,7.4172766 16.148831,7.1189935 16.148831,6.8089921 16.148831,6.5479905 16.202848,6.2949998 16.304839,6.0629899 14.833813,5.1059887 12.845813,4.9460003 11.690769,4.9460003 10.759789,4.9460003 10.103775,5.0449993 10.097793,5.0459912 9.8267941,5.0889904 9.5467614,5.0150006 9.3277644,4.8429882 9.110782,4.6719982 8.9727798,4.4180004 8.9497694,4.1429913L8.8407591,2.8639989C8.804748,2.4459996 9.0327781,2.0509953 9.4117498,1.8730014 9.5747768,1.7969975 13.44781,-2.5157533E-08 17.429852,0z" />
  </g>
</svg>

